<?xml version="1.0" encoding="utf-8"?>
<!-- Generator: Adobe Illustrator 23.0.1, SVG Export Plug-In . SVG Version: 6.00 Build 0)  -->
<svg version="1.1" id="Calque_1" xmlns="http://www.w3.org/2000/svg" xmlns:xlink="http://www.w3.org/1999/xlink" x="0px" y="0px"
	 viewBox="0 0 400 400" style="enable-background:new 0 0 400 400;" xml:space="preserve">
<g>
	<path d="M281.18,391.8H118.46c-60,0-110-45.45-110-104.54V113.63c0-57.27,50-103.63,110-103.63h162.72
		c60.91,0,109.09,46.36,109.09,103.63v173.63C390.27,346.35,342.09,391.8,281.18,391.8z M118.46,47.27
		c-40,0-72.72,29.09-72.72,66.36v173.63c0,39.09,32.73,68.18,72.72,68.18h162.72c39.09,0,72.72-29.09,72.72-68.18V113.63
		c0-37.27-33.64-66.36-72.72-66.36H118.46z M199.36,298.17c-52.73,0-97.27-43.63-97.27-96.36c0-55.45,44.54-99.09,97.27-99.09
		c53.63,0,98.18,43.63,98.18,99.09C297.54,254.54,253,298.17,199.36,298.17z M199.36,136.36c-34.54,0-62.73,28.18-62.73,65.45
		c0,34.54,28.18,62.73,62.73,62.73s64.54-28.18,64.54-62.73C263.91,164.54,233.91,136.36,199.36,136.36z M326.63,98.18
		c0,12.73-9.09,24.54-22.73,24.54c-13.64,0-24.54-11.82-24.54-24.54c0-13.64,10.91-22.73,24.54-22.73
		C317.54,75.45,326.63,84.54,326.63,98.18z"/>
</g>
</svg>
