<?xml version="1.0" encoding="utf-8"?>
<!-- Generator: Adobe Illustrator 23.0.1, SVG Export Plug-In . SVG Version: 6.00 Build 0)  -->
<svg version="1.1" id="Calque_1" xmlns="http://www.w3.org/2000/svg" xmlns:xlink="http://www.w3.org/1999/xlink" x="0px" y="0px"
	 viewBox="0 0 400 400" style="enable-background:new 0 0 400 400;" xml:space="preserve">
<g>
	<path d="M159.56,152.33l-92.49,94.1c-52.28,0-55.5-35.39-55.5-47.45s5.63-24.13,15.28-32.97c8.04-7.24,20.11-13.68,32.98-13.68
		H159.56z M333.28,134.64L133.82,333.3c-19.3,18.5-49.06,18.5-66.75-1.61c-18.5-18.5-18.5-48.25,0.8-65.95L267.33,67.89
		c17.7-18.5,48.25-18.5,65.95,0.8C350.97,86.38,350.97,116.95,333.28,134.64z M190.92,123.38l-15.28,15.28H75.1l-6.43-8.04
		c-17.7-17.7-16.89-47.45,1.61-65.95c8.85-8.84,20.91-12.87,33.78-12.87c11.26,0,24.93,4.83,32.17,14.48L190.92,123.38z
		 M199.77,287.45l46.65,48.26c0,25.73-20.11,49.86-46.65,49.86c-25.74-0.8-46.65-17.7-46.65-49.86L199.77,287.45z M203.79,111.31
		l-46.65-46.65c0-25.73,22.52-50.67,46.65-50.67c25.73,0,46.65,18.5,46.65,50.67L203.79,111.31z M329.26,335.71
		c-17.7,17.69-47.45,16.08-65.95-0.81l-53.89-57.1l16.89-16.08h98.12l6.43,8.04C348.56,287.45,348.56,317.21,329.26,335.71z
		 M387.97,200.59c0,13.67-5.63,24.93-14.48,33.78c-8.85,8.04-20.91,12.87-32.98,12.87H239.98l94.1-93.3
		C367.05,152.33,387.97,174.85,387.97,200.59z"/>
</g>
</svg>
