<?xml version="1.0" encoding="utf-8"?>
<!-- Generator: Adobe Illustrator 23.0.1, SVG Export Plug-In . SVG Version: 6.00 Build 0)  -->
<svg version="1.1" id="Calque_1" xmlns="http://www.w3.org/2000/svg" xmlns:xlink="http://www.w3.org/1999/xlink" x="0px" y="0px"
	 viewBox="0 0 400 400" style="enable-background:new 0 0 400 400;" xml:space="preserve">
<g>
	<path d="M10.62,323.4c6.03,0.76,12.8,0.76,18.08,0.76c36.91,0,70.81-12.81,97.17-33.15c-34.65-0.74-63.27-23.34-72.31-54.22
		c3.77,0.75,9.04,1.5,14.32,1.5c6.78,0,14.31-0.76,20.33-3.01c-35.4-6.78-61.76-38.42-61.76-76.84v-0.75
		c9.79,6.02,21.84,9.79,34.64,9.79C40,153.94,26.44,129.83,26.44,102.72c0-14.32,3.76-27.87,10.54-39.18
		c38.42,47.46,95.66,78.34,161.19,81.35c-1.5-5.27-2.26-11.29-2.26-18.07c0-42.19,34.64-77.58,77.58-77.58
		c22.59,0,42.93,9.79,57.24,24.85c18.08-3.77,34.65-9.79,49.71-18.83c-6.03,18.08-18.08,33.15-34.64,42.93
		c16.57-2.25,30.88-6.02,45.19-12.05c-10.55,15.08-24.1,29.38-39.16,39.92v9.79c0,103.95-78.34,222.2-221.45,222.2
		C86.7,358.05,45.27,345.26,10.62,323.4z"/>
</g>
</svg>
